<?xml version="1.0" encoding="utf-8"?>
<!-- Generator: Adobe Illustrator 27.3.1, SVG Export Plug-In . SVG Version: 6.00 Build 0)  -->
<svg version="1.1" id="Layer_1" xmlns="http://www.w3.org/2000/svg" xmlns:xlink="http://www.w3.org/1999/xlink" x="0px" y="0px"
	 viewBox="0 0 800 800" style="enable-background:new 0 0 800 800;" xml:space="preserve">
<style type="text/css">
	.st0{fill:#FFFFFF;stroke:#231F20;stroke-width:8;stroke-miterlimit:10;}
	.st1{fill:#102A42;}
	.st2{fill:#FFFFFF;stroke:#102A42;stroke-width:8;stroke-miterlimit:10;}
	.st3{clip-path:url(#SVGID_00000042704227903615974120000002011558304012185274_);}
	.st4{clip-path:url(#SVGID_00000163769491203632077700000017855401037798520753_);}
</style>
<g>
	<g>
		<path class="st1" d="M237,559V191.2H62.3v-47.8h401.7v47.8H289V559H237z"/>
		<path class="st1" d="M519.3,241c65.5,0,118.3,19.3,158.3,58c40,38.7,60.1,89,60.1,151c0,62.5-19.7,112.6-59.1,150.2
			c-39.4,37.6-92.5,56.5-159.3,56.5H341.2V241H519.3z M519.3,288.8H392.8v320h126.5c51.2,0,91.5-14.4,120.9-43.1
			c29.4-28.7,44.1-67.6,44.1-116.5c0-48.2-14.9-87-44.8-116.3C609.5,303.5,569.5,288.8,519.3,288.8z"/>
	</g>
</g>
</svg>
