<?xml version="1.0" encoding="utf-8"?>
<!-- Generator: Adobe Illustrator 27.3.1, SVG Export Plug-In . SVG Version: 6.00 Build 0)  -->
<svg version="1.1" id="Layer_1" xmlns="http://www.w3.org/2000/svg" xmlns:xlink="http://www.w3.org/1999/xlink" x="0px" y="0px"
	 viewBox="0 0 2911.7 800" style="enable-background:new 0 0 2911.7 800;" xml:space="preserve">
<style type="text/css">
	.st0{fill:#FFFFFF;stroke:#231F20;stroke-width:8;stroke-miterlimit:10;}
	.st1{fill:#102A42;}
	.st2{fill:#FFFFFF;stroke:#102A42;stroke-width:8;stroke-miterlimit:10;}
	.st3{clip-path:url(#SVGID_00000135648967530533430390000011958735705221447824_);}
</style>
<g>
	<g>
		<path class="st1" d="M877.1,464.6V254.8h-99.6v-27.3h229.1v27.3h-99.8v209.8H877.1z"/>
		<path class="st1" d="M1039.5,464.6l-62.1-183.4h28.3l44.7,134.2l46.2-134.2h23.8l46.2,134.2l44.9-134.2h28.1L1178,464.6h-20.6
			l-48.7-141.1l-49,141.1H1039.5z"/>
		<path class="st1" d="M1370.6,470.4c-32.6,0-59.5-9.2-80.5-27.7c-21-18.5-31.6-41.7-31.6-69.6c0-28.1,10.5-51.2,31.5-69.5
			c21-18.3,47.8-27.4,80.6-27.4c33.1,0,60.1,9.1,81.1,27.3c21,18.2,31.5,41.4,31.5,69.6c0,28.1-10.5,51.3-31.6,69.7
			C1430.5,461.2,1403.5,470.4,1370.6,470.4z M1370.6,443.5c24.5,0,44.4-6.6,59.9-19.9c15.5-13.2,23.2-30.1,23.2-50.6
			c0-20.3-7.8-37.1-23.3-50.5c-15.5-13.3-35.5-20-59.8-20c-24.3,0-44.2,6.6-59.6,19.9c-15.4,13.2-23.1,30.1-23.1,50.6
			c0,20.5,7.7,37.3,23.1,50.6C1326.4,436.9,1346.2,443.5,1370.6,443.5z"/>
		<path class="st1" d="M1635.7,227.5c37.4,0,67.5,11,90.3,33.1c22.8,22,34.2,50.7,34.2,86.1c0,35.6-11.2,64.2-33.7,85.7
			c-22.5,21.5-52.8,32.2-90.8,32.2h-101.6V227.5H1635.7z M1635.7,254.8h-72.1v182.5h72.1c29.2,0,52.2-8.2,68.9-24.6
			c16.7-16.4,25.1-38.5,25.1-66.5c0-27.5-8.5-49.6-25.6-66.3C1687.2,263.2,1664.4,254.8,1635.7,254.8z"/>
		<path class="st1" d="M1903.9,470.4c-32.6,0-59.5-9.2-80.5-27.7c-21-18.5-31.6-41.7-31.6-69.6c0-28.1,10.5-51.2,31.5-69.5
			c21-18.3,47.8-27.4,80.6-27.4c33.1,0,60.1,9.1,81.1,27.3c21,18.2,31.5,41.4,31.5,69.6c0,28.1-10.5,51.3-31.6,69.7
			C1963.8,461.2,1936.8,470.4,1903.9,470.4z M1903.9,443.5c24.5,0,44.4-6.6,59.9-19.9c15.5-13.2,23.2-30.1,23.2-50.6
			c0-20.3-7.8-37.1-23.3-50.5c-15.5-13.3-35.5-20-59.8-20c-24.3,0-44.2,6.6-59.6,19.9c-15.4,13.2-23.1,30.1-23.1,50.6
			c0,20.5,7.7,37.3,23.1,50.6C1859.7,436.9,1879.6,443.5,1903.9,443.5z"/>
		<path class="st1" d="M2159.4,470.4c-32.6,0-59.5-9.2-80.5-27.7c-21-18.5-31.6-41.7-31.6-69.6c0-28.1,10.5-51.2,31.5-69.5
			c21-18.3,47.8-27.4,80.6-27.4c33.1,0,60.1,9.1,81.1,27.3c21,18.2,31.5,41.4,31.5,69.6c0,28.1-10.5,51.3-31.6,69.7
			C2219.3,461.2,2192.4,470.4,2159.4,470.4z M2159.4,443.5c24.5,0,44.4-6.6,59.9-19.9c15.5-13.2,23.2-30.1,23.2-50.6
			c0-20.3-7.8-37.1-23.3-50.5c-15.5-13.3-35.5-20-59.8-20c-24.3,0-44.2,6.6-59.6,19.9c-15.4,13.2-23.1,30.1-23.1,50.6
			c0,20.5,7.7,37.3,23.1,50.6C2115.2,436.9,2135.1,443.5,2159.4,443.5z"/>
		<path class="st1" d="M2347.8,384.5v80.1H2319V281.6h126.3c18.8,0,33.4,4.5,44,13.5c10.6,9,15.9,21.5,15.9,37.6
			c0,13-4.2,24.3-12.6,33.8c-8.4,9.5-19.3,15.4-32.7,17.5l50.9,80.5h-31.1l-52-80.1H2347.8z M2347.8,357.6h97.5
			c9.9,0,17.4-2.1,22.7-6.4c5.2-4.3,7.8-10.4,7.8-18.5c0-8-2.6-14.1-7.8-18.4c-5.2-4.2-12.8-6.3-22.7-6.3h-97.5V357.6z"/>
		<path class="st1" d="M2541.2,441.2l14-24c12.6,8.4,26.3,15,41.2,19.8c14.9,4.7,29.1,7.1,42.7,7.1c16.3,0,29.5-3.3,39.5-10
			c10-6.7,15-15.2,15-25.7c0-10.4-4.6-18.2-13.7-23.3c-9.2-5.1-23.6-7.9-43.4-8.5c-33.4-0.4-56.3-4.3-68.7-11.6
			c-12.5-7.3-18.7-19.4-18.7-36.3c0-15.7,6.8-28.4,20.5-38c13.7-9.6,32-14.4,55.1-14.4c15.7,0,31,2.2,45.8,6.7
			c14.8,4.4,29.1,11,42.8,19.8l-14.4,23.8c-11.5-7.7-23.8-13.7-36.9-17.9c-13.2-4.2-25.8-6.3-37.8-6.3c-13.9,0-25.1,2.4-33.5,7.3
			c-8.4,4.9-12.7,11.2-12.7,19.1c0,8.2,4.3,14,12.8,17.4c8.5,3.4,23.3,5.2,44.3,5.2c29.2,0,51.2,4.9,66.1,14.8
			c14.9,9.9,22.3,24.6,22.3,44c0,17.3-7.6,31.7-22.7,43.2c-15.1,11.5-34.7,17.2-58.7,17.2c-17.8,0-35.4-2.5-52.9-7.6
			C2571.9,457.7,2555.8,450.5,2541.2,441.2z"/>
	</g>
	<g>
		<path class="st1" d="M993.4,572h-35.2v27.3h38.6l-1,6.3h-44.7v-69.8h44v6.3h-36.9v23.6h35.2V572z"/>
		<path class="st1" d="M1075.1,574.6c0-13.4,0.1-26.5,0.4-33.7h-0.3c-2.9,10.3-15.8,42.7-24.3,64.7h-6.6
			c-6.4-17.4-19.7-53.6-22.9-64.8h-0.2c0.5,8,0.7,24,0.7,35.9v28.9h-6.9v-69.8h10.7c8.8,22.9,19.8,52.7,22.3,61h0.2
			c1.6-5.8,14.4-38.7,23.5-61h10.4v69.8h-7V574.6z"/>
		<path class="st1" d="M1106.9,535.8h25.5c13.9,0,21,7.4,21,17.3c0,8.2-4.9,13.5-10.4,15.2c4.9,1.5,12.8,6.4,12.8,17
			c0,13.6-10.3,20.3-22.9,20.3h-26V535.8z M1130.6,565.4c11.2,0,15.5-4.3,15.5-11.8c0-6.6-4.7-11.6-13.7-11.6h-18.5v23.4H1130.6z
			 M1113.9,599.4h18.6c9,0,15.9-4.4,15.9-13.9c0-8.3-5.3-14-18.3-14h-16.2V599.4z"/>
		<path class="st1" d="M1183.2,573.8v31.8h-7.2v-69.8h26.1c14,0,21.4,7.6,21.4,18.5c0,9-5.2,14.6-12.5,16.4
			c6.5,1.6,11.4,6.1,11.4,18.1v2.8c0,4.8-0.4,11.2,0.9,14h-7.1c-1.3-3-1.1-8.5-1.1-14.8v-1.6c0-10.8-3.1-15.4-16.1-15.4H1183.2z
			 M1183.2,567.6h16.1c11.5,0,16.7-4.3,16.7-12.9c0-8.1-5.2-12.7-15.4-12.7h-17.4V567.6z"/>
		<path class="st1" d="M1254.1,582.9l-8.3,22.7h-7.2l25.3-69.8h8.7l26.3,69.8h-7.7l-8.4-22.7H1254.1z M1280.7,576.6
			c-7.3-19.7-11.1-29.5-12.5-34.5h-0.1c-1.7,5.6-6.1,17.7-11.9,34.5H1280.7z"/>
		<path class="st1" d="M1368.4,586.4c-3.3,11.5-11.7,20-27,20c-20.4,0-30.9-15.9-30.9-35.6c0-18.9,10.4-36,31.1-36
			c15.7,0,24.6,8.8,26.8,20.5h-7.1c-2.9-8.4-8.4-14.3-20-14.3c-16.5,0-23.3,15-23.3,29.7c0,14.4,6.6,29.5,23.7,29.5
			c11.1,0,16.4-6,19.5-13.8H1368.4z"/>
		<path class="st1" d="M1430.1,572h-35.2v27.3h38.6l-1,6.3h-44.7v-69.8h44v6.3h-36.9v23.6h35.2V572z"/>
		<path class="st1" d="M1499.8,605.6l-25.7-69.8h7.6l13,35.7c3.8,10.5,7.8,21.5,9.3,27.6h0.2c1.5-5.4,5.9-17,9.7-27.2l13.5-36.1h7.4
			l-26.6,69.8H1499.8z"/>
		<path class="st1" d="M1558.2,535.8v69.8h-7.1v-69.8H1558.2z"/>
		<path class="st1" d="M1583.1,605.6v-69.8h9.9c10.5,16.6,34.3,53.6,38.5,61.2h0.1c-0.6-9.6-0.5-20.2-0.5-31.6v-29.6h6.9v69.8h-9.2
			c-9.9-15.7-34.3-54.8-39-62.6h-0.2c0.5,8.6,0.5,19.6,0.5,32.2v30.4H1583.1z"/>
		<path class="st1" d="M1676.9,542.1h-23v-6.3h53.3v6.3h-23.1v63.5h-7.2V542.1z"/>
		<path class="st1" d="M1723,582.9l-8.3,22.7h-7.2l25.3-69.8h8.7l26.3,69.8h-7.7l-8.4-22.7H1723z M1749.6,576.6
			c-7.3-19.7-11.1-29.5-12.5-34.5h-0.1c-1.7,5.6-6.1,17.7-11.9,34.5H1749.6z"/>
		<path class="st1" d="M1838.5,605.6h-5.7c-0.4-1-0.6-4.4-0.7-10.4c-2.8,4.9-8.5,11.3-22.2,11.3c-20.1,0-30.5-15.3-30.5-35.2
			c0-20.8,11.1-36.5,31.9-36.5c15.6,0,25.6,8.3,27.7,21h-7.1c-2.7-9-9-14.8-20.8-14.8c-16.9,0-24.2,13.3-24.2,30
			c0,15.2,7.1,29.2,23.6,29.2c16.7,0,21.1-10.9,21.1-24.7v-0.8h-21.3v-6.3h28.2V605.6z"/>
		<path class="st1" d="M1903.3,572h-35.2v27.3h38.6l-1,6.3H1861v-69.8h44v6.3h-36.9v23.6h35.2V572z"/>
		<path class="st1" d="M1924.2,605.6v-13.7h6.9v13.7H1924.2z"/>
		<path class="st1" d="M1984.4,586.5c2,8.9,7.9,14,18.8,14c11.9,0,16.5-5.8,16.5-13c0-7.5-3.4-11.9-18.2-15.5
			c-15.5-3.9-21.6-9-21.6-19c0-9.7,7.1-18.2,22.4-18.2c15.9,0,22.6,9.5,23.5,18.3h-7.3c-1.5-6.9-5.9-12.2-16.5-12.2
			c-9.4,0-14.6,4.3-14.6,11.6c0,7.1,4.3,9.9,16.9,13c19.8,4.9,23,12.7,23,21.4c0,10.7-7.9,19.5-24.5,19.5
			c-17.5,0-24.4-9.9-25.8-19.9H1984.4z"/>
		<path class="st1" d="M2060.9,542.1h-23v-6.3h53.3v6.3h-23.1v63.5h-7.2V542.1z"/>
		<path class="st1" d="M2106.9,582.9l-8.3,22.7h-7.2l25.3-69.8h8.7l26.3,69.8h-7.7l-8.4-22.7H2106.9z M2133.5,576.6
			c-7.3-19.7-11.1-29.5-12.5-34.5h-0.1c-1.7,5.6-6.1,17.7-11.9,34.5H2133.5z"/>
		<path class="st1" d="M2168.5,605.6v-69.8h9.9c10.5,16.6,34.3,53.6,38.5,61.2h0.1c-0.6-9.6-0.5-20.2-0.5-31.6v-29.6h6.9v69.8h-9.2
			c-9.9-15.7-34.3-54.8-39-62.6h-0.2c0.5,8.6,0.5,19.6,0.5,32.2v30.4H2168.5z"/>
		<path class="st1" d="M2248.3,535.8h24c19.3,0,32.6,13.4,32.6,34.2c0,20.8-13,35.6-32.8,35.6h-23.8V535.8z M2255.4,599.3h15.9
			c17.5,0,26-12.4,26-29c0-14.6-7.7-28.2-26-28.2h-15.9V599.3z"/>
		<path class="st1" d="M2415.2,570.2c0,19.2-10.5,36.4-32.2,36.4c-20.1,0-31.5-15.9-31.5-35.9c0-19.9,11.3-35.9,32.2-35.9
			C2403.1,534.8,2415.2,549.7,2415.2,570.2z M2359,570.4c0,15.6,8.4,29.9,24.3,29.9c17.2,0,24.3-14.1,24.3-29.9
			c0-15.7-8-29.3-24.2-29.3C2366.5,541.1,2359,555,2359,570.4z"/>
		<path class="st1" d="M2442.4,535.8V578c0,17.6,9.8,22.2,19.3,22.2c11.1,0,19.2-4.8,19.2-22.2v-42.2h7.2v41.8
			c0,22.2-12,28.8-26.6,28.8c-14.1,0-26.4-7.2-26.4-28v-42.6H2442.4z"/>
		<path class="st1" d="M2526.7,542.1h-23v-6.3h53.3v6.3h-23.1v63.5h-7.2V542.1z"/>
		<path class="st1" d="M2561.5,605.6v-13.7h6.9v13.7H2561.5z"/>
	</g>
</g>
<g>
	<defs>
		<path id="SVGID_1_" d="M714.2,373c0,2.5,0,4.9-0.1,7.4v0c0,0.1,0,0.2,0,0.3c-0.3,11.2-1.3,22.3-2.9,33.2c-0.1,0.9-0.3,1.8-0.4,2.8
			c-1.3,8.2-2.9,16.2-4.9,24.1c0,0.1,0,0.2-0.1,0.3c-4,16.1-9.4,31.6-16,46.4c0,0.1-0.1,0.1-0.1,0.2c-6,13.3-12.9,26-20.8,38.1
			c0,0.1-0.1,0.1-0.1,0.2c0,0,0,0,0,0c-7.3,11.3-15.4,21.9-24.3,32c0,0-0.1,0.1-0.1,0.1c-8.4,9.6-17.5,18.6-27.2,27
			c0,0-0.1,0.1-0.1,0.1c-9.4,8.1-19.4,15.7-29.8,22.5c-0.1,0-0.1,0.1-0.2,0.1c-10.3,6.8-21.1,12.8-32.3,18.2c-0.1,0-0.1,0-0.2,0.1
			c-2.7,1.3-5.5,2.6-8.2,3.8h0c-8.6,3.8-17.5,7.2-26.5,10.1c-0.1,0-0.1,0-0.2,0.1c-8.5,2.7-17.1,5.1-26,7c-0.2,0-0.3,0.1-0.5,0.1h0
			c-3.7,0.8-7.3,1.5-11,2.1c-0.1,0-0.1,0-0.2,0c-11.3,2-22.9,3.3-34.6,3.8h0c-0.1,0-0.3,0-0.4,0c-1.8,0.1-3.6,0.2-5.4,0.2
			c-0.1,0-0.1,0-0.2,0c-2.5,0.1-5.1,0.1-7.6,0.1c-9.6,0-19.1-0.5-28.5-1.4c-0.1,0-0.3,0-0.4,0c-2.5-0.3-5.1-0.6-7.6-0.9
			c-0.1,0-0.2,0-0.2,0c-10.4-1.4-20.7-3.3-30.7-5.8c-0.1,0-0.2-0.1-0.4-0.1c-6.1-1.5-12.1-3.2-18.1-5.2c-0.1,0-0.2,0-0.3-0.1
			c-5.9-1.9-11.7-4-17.4-6.3c-0.1,0-0.2-0.1-0.3-0.1c-11.4-4.5-22.4-9.8-33-15.7c-0.2-0.1-0.4-0.2-0.5-0.3c-2.3-1.3-4.5-2.6-6.8-3.9
			c-0.1-0.1-0.2-0.1-0.3-0.2c-8.1-4.9-16-10.2-23.5-15.8c-0.1-0.1-0.2-0.1-0.3-0.2c-10.1-7.6-19.6-15.8-28.6-24.6
			c-50.5-49.8-82.2-118.5-83.5-194.7c0-0.1,0-0.3,0-0.4c0-1.5,0-3.1,0-4.6c0-20.2,2.1-39.9,6.2-58.8c0-0.1,0-0.2,0.1-0.3
			c3.6-16.6,8.6-32.7,15-48.1c0-0.1,0.1-0.1,0.1-0.2c5.7-13.7,12.4-26.8,20.1-39.3c0-0.1,0.1-0.1,0.1-0.2
			c7.1-11.6,15.1-22.6,23.8-33c0-0.1,0.1-0.1,0.1-0.2c8.3-9.9,17.2-19.1,26.7-27.8c0,0,0.1-0.1,0.1-0.1c9.2-8.4,19.1-16.1,29.4-23.2
			c0,0,0.1-0.1,0.2-0.1c10.2-7,20.8-13.3,31.9-18.9c0.1,0,0.1-0.1,0.2-0.1c11.1-5.6,22.5-10.5,34.4-14.6c0.1,0,0.1,0,0.2-0.1
			c12-4.2,24.3-7.5,37-10c0.1,0,0.1,0,0.2,0c13-2.6,26.3-4.3,39.9-5c0.1,0,0.1,0,0.2,0h0c4.9-0.2,9.7-0.4,14.7-0.4
			c9.7,0,19.3,0.5,28.8,1.5c0.1,0,0.1,0,0.2,0h0c15.6,1.6,30.8,4.5,45.6,8.5c0.9,0.2,1.7,0.5,2.6,0.7c0.1,0,0.2,0,0.3,0.1
			c11.2,3.2,22.2,7.1,32.8,11.7c0.1,0,0.2,0.1,0.3,0.1c7.8,3.4,15.5,7.1,22.9,11.1c0.1,0.1,0.2,0.1,0.3,0.2c3.2,1.7,6.3,3.5,9.3,5.3
			c0.2,0.1,0.4,0.2,0.5,0.3c10.5,6.3,20.6,13.2,30.1,20.7c0.1,0.1,0.2,0.1,0.3,0.2c9.8,7.8,19.1,16.2,27.8,25.2
			c0.1,0.1,0.2,0.2,0.3,0.3c4.4,4.5,8.6,9.2,12.6,14l0,0l0.7,0.8l0,0c4.1,4.9,8,9.9,11.8,15.1c0.1,0.1,0.2,0.2,0.2,0.3
			c8.1,11.2,15.4,23.1,21.9,35.5l0.2,0.4c5.3,10.3,10,21,14,32c0.1,0.3,0.2,0.6,0.3,1c1.2,3.2,2.3,6.5,3.3,9.8
			c0.1,0.2,0.1,0.3,0.1,0.5c0.3,1.1,0.7,2.2,1,3.3c0.3,1.1,0.7,2.2,1,3.3c0.3,1.1,0.6,2.2,0.9,3.3c0.3,1.1,0.6,2.2,0.9,3.3
			c0.4,1.3,0.7,2.7,1,4.1c0.2,0.8,0.4,1.7,0.6,2.5c0,0.1,0,0.2,0.1,0.2c0.2,0.9,0.4,1.9,0.7,2.8c0.1,0.3,0.1,0.6,0.2,0.9
			c0.2,0.9,0.4,1.9,0.6,2.9c0.2,1.1,0.5,2.2,0.7,3.2c0,0.2,0.1,0.3,0.1,0.5c0.2,0.9,0.4,1.8,0.5,2.7c0,0.2,0.1,0.4,0.1,0.6
			c0.2,0.8,0.3,1.6,0.4,2.5c0.1,0.5,0.2,1.1,0.3,1.6c0.2,0.9,0.3,1.9,0.5,2.8c0.1,0.8,0.2,1.5,0.4,2.3c0.1,0.5,0.1,0.9,0.2,1.4
			c0.1,0.7,0.2,1.4,0.3,2.1c0.1,0.6,0.2,1.3,0.3,1.9c0.1,1,0.3,2.1,0.4,3.1c0.1,0.9,0.2,1.8,0.3,2.8v0
			C713.7,352.3,714.2,362.5,714.2,373z"/>
	</defs>
	<clipPath id="SVGID_00000121999197341734723480000006672279098710038401_">
		<use xlink:href="#SVGID_1_"  style="overflow:visible;"/>
	</clipPath>
	<g style="clip-path:url(#SVGID_00000121999197341734723480000006672279098710038401_);">
		<path class="st2" d="M712.2,372.9c0,2.5,0,4.9-0.1,7.3v0c0,0.1,0,0.2,0,0.3c-0.3,11.1-1.3,22.1-2.8,32.9c-0.1,0.9-0.3,1.8-0.4,2.7
			c-1.3,8.1-2.9,16.1-4.8,23.9c0,0.1,0,0.2-0.1,0.3c-4,15.9-9.3,31.3-15.9,46c0,0.1-0.1,0.1-0.1,0.2c-5.9,13.2-12.8,25.8-20.6,37.8
			c0,0.1-0.1,0.1-0.1,0.2c0,0,0,0,0,0c-7.3,11.2-15.3,21.8-24.1,31.7c0,0-0.1,0.1-0.1,0.1c-8.4,9.5-17.4,18.5-27,26.8
			c0,0-0.1,0.1-0.1,0.1c-9.3,8.1-19.2,15.5-29.5,22.3c-0.1,0-0.1,0.1-0.2,0.1c-10.2,6.7-20.9,12.7-32,18.1c-0.1,0-0.1,0-0.2,0.1
			c-2.7,1.3-5.4,2.5-8.2,3.7h0c-8.6,3.8-17.3,7.1-26.3,10c-0.1,0-0.1,0-0.2,0.1c-8.4,2.7-17,5-25.7,6.9c-0.2,0-0.3,0.1-0.5,0.1h0
			c-3.6,0.8-7.3,1.5-10.9,2.1c-0.1,0-0.1,0-0.2,0c-11.2,1.9-22.7,3.2-34.3,3.8h0c-0.1,0-0.3,0-0.4,0c-1.8,0.1-3.6,0.2-5.4,0.2
			c-0.1,0-0.1,0-0.2,0c-2.5,0.1-5,0.1-7.5,0.1c-9.5,0-19-0.5-28.3-1.4c-0.1,0-0.3,0-0.4,0c-2.5-0.3-5-0.6-7.5-0.9
			c-0.1,0-0.2,0-0.2,0c-10.3-1.4-20.5-3.3-30.4-5.7c-0.1,0-0.2-0.1-0.4-0.1c-6.1-1.5-12-3.2-17.9-5.1c-0.1,0-0.2,0-0.3-0.1
			c-5.8-1.9-11.6-3.9-17.2-6.2c-0.1,0-0.2-0.1-0.3-0.1c-11.3-4.5-22.2-9.7-32.7-15.6c-0.2-0.1-0.4-0.2-0.5-0.3
			c-2.3-1.3-4.5-2.6-6.7-3.9c-0.1-0.1-0.2-0.1-0.3-0.2c-8-4.8-15.8-10.1-23.3-15.7c-0.1-0.1-0.2-0.1-0.3-0.2
			c-10-7.5-19.5-15.7-28.3-24.4c-50-49.3-81.5-117.5-82.8-193c0-0.1,0-0.3,0-0.4c0-1.5,0-3.1,0-4.6c0-20,2.1-39.5,6.1-58.3
			c0-0.1,0-0.2,0.1-0.3c3.5-16.5,8.5-32.5,14.9-47.7c0-0.1,0.1-0.1,0.1-0.2c5.6-13.6,12.3-26.6,19.9-39c0-0.1,0.1-0.1,0.1-0.2
			c7.1-11.5,15-22.4,23.6-32.7c0-0.1,0.1-0.1,0.1-0.2c8.2-9.8,17.1-19,26.5-27.6c0,0,0.1-0.1,0.1-0.1c9.2-8.3,18.9-16,29.1-23
			c0,0,0.1-0.1,0.2-0.1c10.1-6.9,20.6-13.2,31.6-18.8c0.1,0,0.1-0.1,0.2-0.1c11-5.6,22.3-10.4,34.1-14.5c0.1,0,0.1,0,0.2-0.1
			c11.9-4.1,24.1-7.5,36.7-10c0.1,0,0.1,0,0.2,0c12.9-2.6,26.1-4.2,39.6-4.9c0.1,0,0.1,0,0.2,0h0c4.8-0.2,9.7-0.4,14.5-0.4
			c9.6,0,19.1,0.5,28.5,1.4c0.1,0,0.1,0,0.2,0h0c15.5,1.6,30.6,4.4,45.2,8.5c0.9,0.2,1.7,0.5,2.6,0.7c0.1,0,0.2,0,0.3,0.1
			c11.1,3.2,22,7,32.5,11.6c0.1,0,0.2,0.1,0.3,0.1c7.8,3.3,15.3,7,22.7,11c0.1,0.1,0.2,0.1,0.3,0.2c3.1,1.7,6.2,3.4,9.3,5.3
			c0.2,0.1,0.4,0.2,0.5,0.3c10.4,6.2,20.4,13.1,29.8,20.6c0.1,0.1,0.2,0.1,0.3,0.2c9.7,7.7,19,16.1,27.6,25c0.1,0.1,0.2,0.2,0.3,0.3
			c4.3,4.5,8.5,9.1,12.5,13.9l0,0l0.7,0.8l0,0c4.1,4.9,7.9,9.9,11.7,15c0.1,0.1,0.2,0.2,0.2,0.3c8.1,11.1,15.3,22.9,21.7,35.2
			l0.2,0.4c5.3,10.2,9.9,20.8,13.9,31.7c0.1,0.3,0.2,0.6,0.3,1c1.2,3.2,2.3,6.5,3.3,9.7c0.1,0.2,0.1,0.3,0.1,0.5
			c0.3,1.1,0.7,2.2,1,3.2c0.3,1.1,0.6,2.2,1,3.3c0.3,1.1,0.6,2.2,0.9,3.3c0.3,1.1,0.6,2.2,0.9,3.3c0.4,1.3,0.7,2.7,1,4
			c0.2,0.8,0.4,1.7,0.6,2.5c0,0.1,0,0.2,0.1,0.2c0.2,0.9,0.4,1.9,0.6,2.8c0.1,0.3,0.1,0.6,0.2,0.9c0.2,0.9,0.4,1.9,0.6,2.8
			c0.2,1.1,0.5,2.1,0.7,3.2c0,0.2,0.1,0.3,0.1,0.5c0.2,0.9,0.4,1.8,0.5,2.7c0,0.2,0.1,0.4,0.1,0.6c0.2,0.8,0.3,1.6,0.4,2.4
			c0.1,0.5,0.2,1.1,0.3,1.6c0.2,0.9,0.3,1.9,0.5,2.8c0.1,0.7,0.2,1.5,0.4,2.2c0.1,0.5,0.1,0.9,0.2,1.4c0.1,0.7,0.2,1.4,0.3,2
			c0.1,0.6,0.2,1.3,0.3,1.9c0.1,1,0.3,2.1,0.4,3.1c0.1,0.9,0.2,1.8,0.3,2.7v0C711.7,352.4,712.2,362.6,712.2,372.9z"/>
		<path class="st2" d="M275,583l16.4,28.4c-0.1-0.1-0.2-0.1-0.3-0.2c-8-4.8-15.8-10.1-23.3-15.7c-0.1-0.1-0.2-0.1-0.3-0.2
			c-10-7.5-19.5-15.7-28.3-24.4c-50-49.3-81.5-117.5-82.8-193c0-0.1,0-0.3,0-0.4l97.2,168.4l21.2,36.8L275,583z"/>
		<path class="st2" d="M349.1,637.6c-0.1,0-0.2,0-0.3-0.1c-5.8-1.9-11.6-3.9-17.2-6.2c-0.1,0-0.2-0.1-0.3-0.1
			c-11.3-4.5-22.2-9.7-32.7-15.6c-0.2-0.1-0.4-0.2-0.5-0.3c-2.3-1.3-4.5-2.6-6.7-3.9c-0.1-0.1-0.2-0.1-0.3-0.2l-16.2-28l-0.2-0.4
			l-21.2-36.8l-97.1-168.2c0-0.1,0-0.3,0-0.4c0-1.5,0-3.1,0-4.6c0-20,2.1-39.5,6.1-58.3c0-0.1,0-0.2,0.1-0.3l112.4,194.6l21.2,36.8
			l0.2,0.4l20.9,36.1l0.3,0.6l20.9,36.1l0.2,0.4L349.1,637.6z"/>
		<path class="st2" d="M381.1,619.1l17,29.4c-0.1,0-0.2,0-0.2,0c-10.3-1.4-20.5-3.3-30.4-5.7c-0.1,0-0.2-0.1-0.4-0.1
			c-6.1-1.5-12-3.2-17.9-5.1c-0.1,0-0.2,0-0.3-0.1l-10.4-18v0l-0.2-0.4L317.4,583l-0.4-0.6l-20.9-36.1l-0.2-0.4l-21.2-36.8
			L162.4,314.6c0-0.1,0-0.2,0.1-0.3c3.5-16.5,8.5-32.5,14.9-47.7c0-0.1,0.1-0.1,0.1-0.2L296.2,472l21.2,36.8l0.2,0.4l20.9,36.1
			l0.3,0.6l20.9,36.1l0.2,0.4l21,36.4L381.1,619.1z"/>
		<path class="st2" d="M442,650.8c-0.1,0-0.1,0-0.2,0c-2.5,0.1-5,0.1-7.5,0.1c-9.5,0-19-0.5-28.3-1.4c-0.1,0-0.3,0-0.4,0
			c-2.5-0.3-5-0.6-7.5-0.9c-0.1,0-0.2,0-0.2,0L381,619.3v0l-0.2-0.4l-21-36.4l-0.2-0.4l-20.9-36.1l-0.4-0.6l-20.9-36.1l-0.2-0.4
			l-21.2-36.8L177.3,266.6c0-0.1,0.1-0.1,0.1-0.2c5.6-13.6,12.3-26.6,19.9-39c0-0.1,0.1-0.1,0.1-0.2l120,207.9l21.2,36.8l0.2,0.4
			l20.9,36.1v0l0.3,0.6l20.9,36.1l0.2,0.4l21,36.4l0.2,0.4l21,36.4l0.2,0.4L442,650.8z"/>
		<path class="st2" d="M359.9,435.1l-21.2,36.7l-21.2-36.8l-120-207.9c7.1-11.5,15-22.4,23.6-32.7l117.7,203.8L359.9,435.1z"/>
		<path class="st2" d="M482.3,646.7c-0.1,0-0.1,0-0.2,0c-11.2,1.9-22.7,3.2-34.3,3.8h0c-0.1,0-0.3,0-0.4,0c-1.8,0.1-3.6,0.2-5.4,0.2
			c-0.1,0-0.1,0-0.2,0l-18.3-31.7l-0.2-0.4l-21-36.4l-0.2-0.4l-21-36.4l-0.2-0.4L360,509.1l-0.4-0.6l-20.9-36.1l-0.2-0.3v0
			l-21.2-36.8l-120-207.9c0-0.1,0.1-0.1,0.1-0.2l120,207.9l21.2,36.8l21.2-36.7l-21.2-36.8L221,194.6c0-0.1,0.1-0.1,0.1-0.2
			l117.6,203.8l21.2,36.8l0.2,0.4l20.9,36.1l0.4,0.6l20.9,36.1l0.2,0.4l21,36.4l0.2,0.4l21,36.4l0.2,0.4l21,36.4l0.2,0.4
			L482.3,646.7z"/>
		<path class="st2" d="M402.3,434.7l-21.2,36.7l-20.9-36.1l-0.2-0.4l-21.2-36.8L221.2,194.4c8.2-9.8,17.1-19,26.5-27.6L360,361.4
			l21.2,36.8l0.2,0.4L402.3,434.7z"/>
		<path class="st2" d="M519.6,637.5c-0.1,0-0.1,0-0.2,0.1c-8.4,2.7-17,5-25.7,6.9c-0.2,0-0.3,0.1-0.5,0.1h0
			c-3.6,0.8-7.3,1.5-10.9,2.1c-0.1,0-0.1,0-0.2,0L466,618.9l-0.2-0.4l-21-36.4l-0.2-0.4l-21-36.4l-0.2-0.4l-21-36.4l-0.2-0.4
			l-20.9-36.1l-0.4-0.6l-20.9-36.1l-0.2-0.4l-21.2-36.8L221,194.6c0-0.1,0.1-0.1,0.1-0.2l117.6,203.8l21.2,36.8l0.2,0.4l20.9,36.1
			l21.2-36.7l-20.9-36.1l-0.2-0.4L360,361.4L247.7,166.8c0,0,0.1-0.1,0.1-0.1l112.3,194.5l21.2,36.8l0.2,0.4l20.9,36.1l0.4,0.6
			l20.9,36.1v0l0.2,0.4v0l21,36.4l0.2,0.4l21,36.4l0.2,0.4l21,36.4v0l0.2,0.4l21,36.4l0.2,0.4L519.6,637.5z"/>
		<path class="st2" d="M444.9,434.3l-0.1,0.2l-21.2,36.7l-20.9-36.1l-0.4-0.6l-20.9-36.1l-0.2-0.4l-21.2-36.8L247.8,166.7
			c9.2-8.3,18.9-16,29.1-23c0,0,0.1-0.1,0.2-0.1l104.4,180.7l21.2,36.8l0.2,0.4l20.9,36.1l0.4,0.6L444.9,434.3z"/>
		<path class="st2" d="M643.1,556.4c-8.4,9.5-17.4,18.5-27,26.8c0,0-0.1,0.1-0.1,0.1l-22.2-38.5L572.5,508l-0.2-0.4l-21-36.4
			l0.1-0.2l21.2-36.7l21,36.4l0.2,0.4l21.2,36.8L643.1,556.4z"/>
		<path class="st2" d="M487.6,287l-21.2,36.7l-0.1,0.2l-20.9-36.1l-0.2-0.3L424,250.7l-81.1-140.4c0.1,0,0.1,0,0.2-0.1
			c11.9-4.1,24.1-7.5,36.7-10l65.5,113.5l21.2,36.8l0.2,0.3L487.6,287z"/>
		<path class="st2" d="M667.3,524.5C667.3,524.5,667.3,524.5,667.3,524.5c-7.3,11.2-15.3,21.8-24.1,31.7l-28.1-48.6l-21.2-36.7
			l21.2-36.7l21.2,36.8l19.9,34.4L667.3,524.5z"/>
		<path class="st2" d="M688.1,486.3c0,0.1-0.1,0.1-0.1,0.2c-5.9,13.2-12.8,25.8-20.6,37.8c0,0.1-0.1,0.1-0.1,0.2l-11-19.1
			l-19.9-34.4l-21.2-36.8l-0.2-0.4l-21-36.4l-0.2-0.4l-21-36.4l-0.2-0.4l-21-36.4l-0.2-0.4l-21-36.4l-0.2-0.4l-20.9-36.1l-0.4-0.6
			L488,213.9l-0.2-0.3l-21.2-36.8l-47.1-81.5c0.1,0,0.1,0,0.2,0h0l47,81.4v0l21.2,36.8l21.2-36.7l-21.2-36.8l-23.7-41
			c0.1,0,0-1.1,0.1-1.1l-0.1,1.1l23.8,40.9l21.2,36.8l0.2,0.3v0l20.9,36.1l0.3,0.6l20.9,36.1l0.2,0.4l21,36.4l0.2,0.4l21,36.4
			l0.2,0.4l21,36.4l0.2,0.4l21,36.4l0.2,0.4l20.3,35.1l1,1.7l19.9,34.4l0.6,1L688.1,486.3z"/>
		<path class="st2" d="M712.1,380.2L712.1,380.2c0,0.1,0,0.2,0,0.4c-0.3,11.1-1.3,22.1-2.8,32.9c-0.1,0.9-0.3,1.8-0.4,2.7
			c-1.3,8.1-2.9,16.1-4.8,23.9c0,0.1,0,0.2-0.1,0.3l-4.5-7.8l-0.6-1L679,397l-1-1.7l-20.3-35.1l-0.2-0.4l-21-36.4l-0.2-0.4l-21-36.4
			l-0.2-0.4l-21-36.4l-0.2-0.4l-21-36.4l-0.2-0.4l-20.9-36.1l-0.4-0.6l-20.9-36.1l-0.2-0.4l-19.7-34.2c0.1,0,0.2,0,0.3,0.1
			c11.1,3.2,22,7,32.5,11.6c0.1,0,0.2,0.1,0.3,0.1c7.8,3.3,15.3,7,22.7,11c0.1,0.1,0.2,0.1,0.3,0.2l6.1,10.6l0.4,0.6l20.9,36.1
			l0.2,0.4l21,36.4l0.2,0.4l21,36.4l0.2,0.4l21,36.4l0.2,0.4l21,36.4l0.2,0.4l20.3,35.1l1,1.7L712.1,380.2z"/>
		<path class="st2" d="M606.7,154.8l-12.3,21.4l-0.1,0.2L573,213.1l-0.1,0.2l-21.2,36.7l-0.1,0.2L530.4,287l-0.1,0.2l-21.2,36.7
			l-0.1,0.2l-21.2,36.7l-0.1,0.2l-21.2,36.7l-0.1,0.2l-21.2,36.7l-0.1,0.2l-21.2,36.7v0l-0.1,0.2l-21.2,36.7l-0.1,0.2l-21.2,36.7
			l-0.1,0.2l-21.2,36.7l-0.1,0.2l-21.2,36.7l-0.1,0.2v0l-6.8,11.8c-0.1,0-0.2-0.1-0.3-0.1c-11.3-4.5-22.2-9.7-32.7-15.6
			c-0.2-0.1-0.4-0.2-0.5-0.3l19-32.9l0.1-0.2l21.2-36.7l0.1-0.2l21.2-36.7l0.1-0.2v0l21.2-36.7l0.1-0.2l21.2-36.7l0.1-0.2l0.4,0.6
			l20.9,36.1l21.2-36.7l0.1-0.2l-20.9-36.1l-0.4-0.6l21.2-36.7l0.1-0.2l21.2-36.7l0.1-0.2l21.2-36.7l0.1-0.2l21.2-36.7l0.1-0.2
			l21.2-36.7l0.1-0.2l21.2-36.7l0.1-0.2l21.2-36.7l0.1-0.2l3.1-5.4c0.2,0.1,0.4,0.2,0.5,0.3c10.4,6.2,20.4,13.1,29.8,20.6
			C606.5,154.7,606.6,154.8,606.7,154.8z"/>
		<path class="st2" d="M402.8,435.1l-0.1,0.2L381.4,472l-0.1,0.2L360.1,509l-0.1,0.2l-21.2,36.7l-0.1,0.2l-21.2,36.7l-0.1,0.2
			l-18.8,32.6c-0.2-0.1-0.4-0.2-0.5-0.3c-2.3-1.3-4.5-2.6-6.7-3.9c-0.1-0.1-0.2-0.1-0.3-0.2c-8-4.8-15.8-10.1-23.3-15.7
			c-0.1-0.1-0.2-0.1-0.3-0.2l7.2-12.5l0.1-0.2l21.2-36.7l0.1-0.2l21.2-36.7l0.1-0.2l21.2-36.7v0l0.1-0.2l21.2-36.7l0.1-0.2l0.2,0.4
			l20.9,36.1l21.2-36.7l-20.9-36.1l-0.2-0.4l0.1-0.2l0.2,0.4l20.9,36.1L402.8,435.1z"/>
		<path class="st2" d="M576,135l-2.8,4.8l-0.1,0.2L552,176.7l-0.1,0.2l-21.2,36.7l-0.1,0.2l-21.2,36.7l-0.1,0.2L488,287.4l-0.1,0.2
			l-21.2,36.7l-0.1,0.2l-21.2,36.7l-0.1,0.2l-21.2,36.7l-0.4-0.6l-20.9-36.1l-0.2-0.4l21.2-36.7l0.1-0.2l21.2-36.7l0.2,0.3
			l20.9,36.1l0.1-0.2l21.2-36.7l-20.9-36.1l-0.2-0.3l0.1-0.2l21.2-36.7l0.1-0.2l21.2-36.7l0.1-0.2l21.2-36.7l0.1-0.2l12.9-22.4
			c0.1,0,0.2,0.1,0.3,0.1c7.8,3.3,15.3,7,22.7,11c0.1,0.1,0.2,0.1,0.3,0.2c3.1,1.7,6.2,3.4,9.3,5.3C576.2,133.8,575.9,134.9,576,135
			z"/>
		<path class="st2" d="M360.2,435.3l-0.1,0.2l-21.2,36.7l-0.1,0.2l-21.2,36.7l-0.1,0.2l-21.2,36.7l-0.1,0.2L275,583l-0.1,0.2
			l-7.1,12.3c-0.1-0.1-0.2-0.1-0.3-0.2c-10-7.5-19.5-15.7-28.3-24.4l14.3-24.8l0.1-0.2l21.2-36.7l0.1-0.2l21.2-36.7l0.1-0.2
			l21.2-36.7l0.1-0.2l21.2,36.8l21.2-36.7l-21.2-36.8l0.1-0.2l21.2,36.8L360.2,435.3z"/>
		<path class="st2" d="M530.5,139.6l-0.1,0.2l-21.2,36.7L488,139.7l-24.4-42.2c15.5,1.6,29.9,3.3,44.5,7.3c0.9,0.2,1.7,0.5,2.6,0.7
			c0.1,0,0.2,0,0.3,0.1L530.5,139.6z"/>
		<path class="st2" d="M634.5,180.1l-19,32.9l-0.1,0.2l-21.2,36.7l-0.1,0.2l-21.2,36.7l-0.1,0.2l-21.2,36.7l-0.1,0.2l-21.2,36.7
			l-0.1,0.2L509,397.6l-0.1,0.2l-21.2,36.7l-0.1,0.2l-21.2,36.7l-0.1,0.2L445,508.3l-0.1,0.2l-21.2,36.7l-0.1,0.2l-21.2,36.7
			l-0.1,0.2l-21.2,36.7l-0.1,0.2v0l-13.6,23.5c-0.1,0-0.2-0.1-0.4-0.1c-6.1-1.5-12-3.2-17.9-5.1c-0.1,0-0.2,0-0.3-0.1
			c-5.8-1.9-11.6-3.9-17.2-6.2c-0.1,0-0.2-0.1-0.3-0.1l7-12l0.1-0.2l21.2-36.7l0.1-0.2l21.2-36.7l0.1-0.2l21.2-36.7l0.1-0.2
			l21.2-36.7l0.1-0.2v0l21.2-36.7l0.1-0.2l21.2-36.7l0.1-0.2l21.2-36.7l0.1-0.2l21.2-36.7l0.1-0.2l21.2-36.7l0.1-0.2l21.2-36.7
			l0.1-0.2l21.2-36.7l0.1-0.2L594,176l0.1-0.2l12.3-21.2c0.1,0.1,0.2,0.1,0.3,0.2c9.7,7.7,19,16.1,27.6,25
			C634.4,179.9,634.4,180,634.5,180.1z"/>
		<path class="st2" d="M659.6,210.1l-1.5,2.7L658,213l-21.2,36.7l-0.1,0.2l-21.2,36.7l-0.1,0.2l-21.2,36.7l-0.1,0.2l-21.2,36.7
			l-0.1,0.2l-21.2,36.7l-0.1,0.2l-21.2,36.7l-0.1,0.2l-21.2,36.7l-0.1,0.2l-21.2,36.7l-0.1,0.2l-21.2,36.7l-0.1,0.2L444.9,582
			l-0.1,0.2l-21.2,36.7l-0.1,0.2L406,649.5c-0.1,0-0.3,0-0.4,0c-2.5-0.3-5-0.6-7.5-0.9c-0.1,0-0.2,0-0.2,0
			c-10.3-1.4-20.5-3.3-30.4-5.7c-0.1,0-0.2-0.1-0.4-0.1l13.7-23.8l0.1-0.2l21.2-36.7l0.1-0.2l21.2-36.7l0.1-0.2l21.2-36.7l0.1-0.2
			l21.2-36.7l0.1-0.2l21.2-36.7l0.1-0.2l21.2-36.7l0.1-0.2l21.2-36.7l0.1-0.2l21.2-36.7l0.1-0.2l21.2-36.7l0.1-0.2l21.2-36.7
			l0.1-0.2l21.2-36.7l0.1-0.2l18.9-32.8c0.1,0.1,0.2,0.2,0.3,0.3c4.3,4.5,8.5,9.1,12.5,13.9l0,0l0.7,0.8l0,0
			c4.1,4.9,7.9,9.9,11.7,15C659.5,209.9,659.6,210,659.6,210.1z"/>
		<path class="st2" d="M681.5,245.7l-2.2,3.8l-0.1,0.2L658,286.5l-0.1,0.2l-21.2,36.7l-0.1,0.2l-21.2,36.7l-0.1,0.2L594,397.2
			l-0.1,0.2l-21.2,36.7l-0.1,0.2l-21.2,36.7l-0.1,0.2L530.1,508l-0.1,0.2l-21.2,36.7l-0.1,0.2l-21.2,36.7l-0.1,0.2l-21.2,36.7
			l-0.1,0.2l-18.2,31.6h0c-0.1,0-0.3,0-0.4,0c-1.8,0.1-3.6,0.2-5.4,0.2c-0.1,0-0.1,0-0.2,0c-2.5,0.1-5,0.1-7.5,0.1
			c-9.5,0-19-0.5-28.3-1.4c-0.1,0-0.3,0-0.4,0l17.7-30.7l0.1-0.2l21.2-36.7l0.1-0.2l21.2-36.7l0.1-0.2l21.2-36.7l0.1-0.2l21.2-36.7
			l0.1-0.2l21.2-36.7l0.1-0.2l21.2-36.7l0.1-0.2l21.2-36.7l0.1-0.2l21.2-36.7l0.1-0.2l21.2-36.7l0.1-0.2l21.2-36.7l0.1-0.2
			l21.2-36.7l0.1-0.2l1.5-2.6c0.1,0.1,0.2,0.2,0.2,0.3c8.1,11.1,15.3,22.9,21.7,35.2L681.5,245.7z"/>
		<path class="st2" d="M699.1,288.1c-1-3.3-2.1-6.5-3.3-9.7c-0.1-0.3-0.2-0.6-0.3-1c-4-10.9-8.6-21.5-13.9-31.7l-0.2-0.4l-2.2,3.8
			l-0.1,0.2l-21.2,36.7l-0.1,0.2L636.5,323l-0.1,0.2l-21.2,36.7l-0.1,0.2l-21.2,36.7l-0.1,0.2l-21.2,36.7l-0.1,0.2l-21.2,36.7
			l-0.1,0.2l-21.2,36.7l-0.1,0.2l-21.2,36.7l-0.1,0.2l-21.2,36.7v0l-0.1,0.2l-21.2,36.7l-0.1,0.2l-18.5,32c0.1,0,0.3,0,0.4,0h0
			c11.6-0.6,23.1-1.8,34.3-3.8c0.1,0,0.1,0,0.2,0c3.7-0.6,7.3-1.3,10.9-2.1h0c0.2,0,0.3-0.1,0.5-0.1l14.9-25.7l0.1-0.2l21.2-36.7
			l0.1-0.2l21.2-36.7l0.1-0.2l21.2-36.7l-0.2-0.4l-21-36.4l0.1-0.2l21.2-36.7l21,36.4l0.2,0.4l0.1-0.2l21.2-36.7l0.1-0.2l21.2-36.7
			l0.1-0.2l21.2-36.7l0.1-0.2l21.2-36.7l0.1-0.2l20-34.6C699.2,288.4,699.1,288.2,699.1,288.1z"/>
		<path class="st2" d="M572.5,508l21.2,36.7l-21.2,36.7l-0.1,0.2l-21.2,36.7l-0.1,0.2l-5.2,9h0c-8.6,3.8-17.3,7.1-26.3,10
			c-0.1,0-0.1,0-0.2,0.1c-8.4,2.7-17,5-25.7,6.9c-0.2,0-0.3,0.1-0.5,0.1l15.1-26.2l0.1-0.2l21.2-36.7l0.1-0.2l21.2-36.7l0.1-0.2
			l21.2-36.7L572.5,508z"/>
		<path class="st2" d="M710.6,342.3L710.6,342.3l-10.2,17.6l-0.1,0.2l-21.2,36.7L679,397l-21.2,36.7l-0.1,0.2l-21.1,36.6l-0.1,0.2
			l-0.1,0.2l-21.2-36.8l-21.2,36.7l21.2,36.7l-0.1,0.2l-21.2-36.8l-0.2-0.4l0.1-0.2l21.2-36.7l0.1-0.2l21.2-36.7l0.1-0.2l21.2-36.7
			l0.1-0.2l21.2-36.7l0.1-0.2l20.1-34.7c0.1,0.2,0.1,0.3,0.1,0.5c0.3,1.1,0.7,2.2,1,3.2c0.3,1.1,0.6,2.2,1,3.3
			c0.3,1.1,0.6,2.2,0.9,3.3c0.3,1.1,0.6,2.2,0.9,3.3c0.4,1.3,0.7,2.7,1,4c0.2,0.8,0.4,1.7,0.6,2.5c0,0.1,0,0.2,0.1,0.2
			c0.2,0.9,0.4,1.9,0.6,2.8c0.1,0.3,0.1,0.6,0.2,0.9c0.2,0.9,0.4,1.9,0.6,2.8c0.2,1.1,0.5,2.1,0.7,3.2c0,0.2,0.1,0.3,0.1,0.5
			c0.2,0.9,0.4,1.8,0.5,2.7c0,0.2,0.1,0.4,0.1,0.6c0.2,0.8,0.3,1.6,0.4,2.4c0.1,0.5,0.2,1.1,0.3,1.6c0.2,0.9,0.3,1.9,0.5,2.8
			c0.1,0.7,0.2,1.5,0.4,2.2c0.1,0.5,0.1,0.9,0.2,1.4c0.1,0.7,0.2,1.4,0.3,2c0.1,0.6,0.2,1.3,0.3,1.9c0.1,1,0.3,2.1,0.4,3.1
			C710.4,340.5,710.5,341.4,710.6,342.3z"/>
		<path class="st2" d="M712.2,372.9c0,2.5,0,4.9-0.1,7.3v0c0,0.1,0,0.2,0,0.3c-0.3,11.1-1.3,22.1-2.8,32.9c-0.1,0.9-0.3,1.8-0.4,2.7
			l-9.1,15.8l-0.1,0.2l-0.1,0.2l-0.1,0.2l-21,36.4l-0.1,0.2l-0.1,0.2l-0.1,0.2l-21,36.4L657,506l-0.6-1l-19.9-34.4l-0.7-1.3
			l-0.2-0.4l0.1-0.2l21-36.4l0.1-0.2l0.1-0.2l0.1-0.2l21-36.4l0.1-0.2l0.1-0.2l0.1-0.2l21-36.4l0.1-0.2l0.1-0.2l0.1-0.2l10.6-18.3
			c0.1,0.9,0.2,1.8,0.3,2.7v0C711.7,352.4,712.2,362.6,712.2,372.9z"/>
		<path class="st2" d="M708.6,414.7c-0.1,0.9,0.4,0.6,0.3,1.5c-1.3,8.1-2.9,16.1-4.8,23.9c0,0.1,0,0.2-0.1,0.3
			c-4,15.9-9.3,31.3-15.9,46c0,0.1-0.1,0.1-0.1,0.2c-5.9,13.2-12.8,25.8-20.6,37.8c0,0.1-0.1,0.1-0.1,0.2c0,0,0,0,0,0l-10.8-18.8
			l-0.2-0.4l0,0l0.1-0.2l0,0l0.1-0.2l21.1-36.5l0,0l0.1-0.1l0,0l21.2-36.7l0,0l0.1-0.2l0,0L708.6,414.7z"/>
		<path class="st2" d="M586.4,605.6c-0.1,0-0.1,0.1-0.2,0.1c-10.2,6.7-20.9,12.7-32,18.1c-0.1,0-0.1,0-0.2,0.1l-3-5.2l-21.2-36.7
			l-0.2-0.4l-21-36.4l-0.2-0.4l-21-36.4l-0.2-0.4l-21-36.4l-0.2-0.4l-21-36.4l-0.2-0.4L424,398.4l-0.3-0.6l-20.9-36.1v0l-0.2-0.3
			l-21.2-36.8L276.9,143.7c0,0,0.1-0.1,0.2-0.1c10.1-6.9,20.6-13.2,31.6-18.8c0.1,0,0.1-0.1,0.2-0.1l93.9,162.7l21.2,36.8l0.2,0.4
			l20.9,36.1l0.4,0.6l20.9,36.1l0.2,0.4l21,36.4l0.2,0.4l21,36.4l0.2,0.4l21,36.4l0.2,0.4l21,36.4l0.2,0.4l21.2,36.7L586.4,605.6z"
			/>
		<path class="st2" d="M616.1,583.1c0,0-0.1,0.1-0.1,0.1c-9.3,8.1-19.2,15.5-29.5,22.3c-0.1,0-0.1,0.1-0.2,0.1l-13.9-24l-21.2-36.7
			l-0.2-0.4l-21-36.4l-0.2-0.4l-21-36.4l-0.2-0.4l-21-36.4l-0.2-0.4l-21-36.4l-0.2-0.4l-20.9-36.1l-0.4-0.6l-20.9-36.1l-0.2-0.3
			l-21.2-36.8l-94-162.8c0.1,0,0.1-0.1,0.2-0.1c11-5.6,22.3-10.4,34.1-14.5c0.1,0,0.1,0,0.2-0.1l81,140.3v0l21.2,36.8l0.2,0.3
			l20.9,36.1l0.4,0.6l20.9,36.1l0.2,0.4l21,36.4l0.2,0.4l21,36.4l0.2,0.4l21,36.4l0.2,0.4l21,36.4l0.2,0.4l21.2,36.7L616.1,583.1z"
			/>
	</g>
</g>
</svg>
